<?xml version="1.0" ?>
<svg version="1.1" id="Layer_1" focusable="false" xmlns="http://www.w3.org/2000/svg" xmlns:xlink="http://www.w3.org/1999/xlink" x="0px" y="0px" viewBox="0 0 24 24" style="enable-background:new 0 0 24 24;">
<path d="M8.4,13.5H6.5c-0.3,0-0.6-0.3-0.6-0.6v-1.9c0-0.3,0.3-0.6,0.6-0.6h1.9c0.3,0,0.6,0.3,0.6,0.6v1.9C9,13.3,8.7,13.5,8.4,13.5z
	 M13.5,12.9v-1.9c0-0.3-0.3-0.6-0.6-0.6h-1.9c-0.3,0-0.6,0.3-0.6,0.6v1.9c0,0.3,0.3,0.6,0.6,0.6h1.9C13.3,13.5,13.5,13.3,13.5,12.9z
	 M18,12.9v-1.9c0-0.3-0.3-0.6-0.6-0.6h-1.9c-0.3,0-0.6,0.3-0.6,0.6v1.9c0,0.3,0.3,0.6,0.6,0.6h1.9C17.8,13.5,18,13.3,18,12.9z
	 M13.5,17.5v-1.9c0-0.3-0.3-0.6-0.6-0.6h-1.9c-0.3,0-0.6,0.3-0.6,0.6v1.9c0,0.3,0.3,0.6,0.6,0.6h1.9C13.3,18,13.5,17.8,13.5,17.5z
	 M9,17.5v-1.9C9,15.3,8.7,15,8.4,15H6.5C6.2,15,6,15.3,6,15.6v1.9C6,17.8,6.2,18,6.5,18h1.9C8.7,18,9,17.8,9,17.5z M18,17.5v-1.9
	c0-0.3-0.3-0.6-0.6-0.6h-1.9c-0.3,0-0.6,0.3-0.6,0.6v1.9c0,0.3,0.3,0.6,0.6,0.6h1.9C17.8,18,18,17.8,18,17.5z M22.6,5.2v16.6
	c0,1.2-1,2.3-2.3,2.3H3.7c-1.2,0-2.3-1-2.3-2.3V5.2C1.4,4,2.5,3,3.7,3H6V0.5c0-0.3,0.3-0.6,0.6-0.6h1.9C8.7-0.1,9,0.2,9,0.5V3h6V0.5
	c0-0.3,0.3-0.6,0.6-0.6h1.9c0.3,0,0.6,0.3,0.6,0.6V3h2.3C21.5,3,22.6,4,22.6,5.2z M20.3,21.5v-14H3.7v14c0,0.2,0.1,0.3,0.3,0.3h16
	C20.2,21.8,20.3,21.7,20.3,21.5z"/>
</svg>
