<?xml version="1.0" encoding="utf-8"?>
<!-- Generator: Adobe Illustrator 26.0.3, SVG Export Plug-In . SVG Version: 6.00 Build 0)  -->
<svg version="1.1" id="Layer_1" xmlns="http://www.w3.org/2000/svg" xmlns:xlink="http://www.w3.org/1999/xlink" x="0px" y="0px"
	 viewBox="0 0 12 12" style="enable-background:new 0 0 12 12;" xml:space="preserve" height="12px" width="12px">
<style type="text/css">
	.st0{opacity:0.8;fill:#FFFFFF;enable-background:new    ;}
	.st1{opacity:0.5;enable-background:new    ;}
</style>
<path class="st0" d="M11.1,0H1C0.5,0,0,0.6,0,1.3v9.5C0,11.4,0.5,12,1,12h10c0.5,0,1-0.6,1-1.3V1.3C12.1,0.6,11.6,0,11.1,0z"/>
<path class="st1" d="M5.1,6.9c-0.3,0.5-0.6,1-1.1,1.4C3.6,8.7,3,8.9,2.4,9V8c0.4-0.1,0.7-0.3,0.9-0.4c0.2-0.2,0.4-0.4,0.5-0.7
	C3.9,6.5,4,6.1,4,5.7c-0.5,0-0.9-0.1-1.1-0.4C2.6,5,2.5,4.7,2.5,4.3c0-0.4,0.1-0.7,0.4-1C3.2,3.1,3.5,3,3.8,3C4.3,3,4.7,3.2,5,3.6
	c0.3,0.4,0.5,1,0.5,1.6C5.5,5.8,5.4,6.4,5.1,6.9z"/>
<path class="st1" d="M9.2,6.9c-0.3,0.5-0.6,1-1.1,1.4C7.7,8.7,7.1,8.9,6.5,9V8c0.4-0.1,0.7-0.3,0.9-0.4c0.2-0.2,0.4-0.4,0.5-0.7
	C8,6.5,8.1,6.1,8.1,5.7c-0.5,0-0.9-0.1-1.1-0.4C6.7,5,6.5,4.7,6.5,4.3c0-0.4,0.1-0.7,0.4-1C7.2,3.1,7.5,3,7.9,3
	c0.5,0,0.9,0.2,1.2,0.6c0.3,0.4,0.5,1,0.5,1.6C9.6,5.8,9.5,6.4,9.2,6.9z"/>
</svg>
