<?xml version="1.0" encoding="utf-8"?>
<!-- Generator: Adobe Illustrator 26.0.3, SVG Export Plug-In . SVG Version: 6.00 Build 0)  -->
<svg version="1.1" id="Layer_1"
    xmlns="http://www.w3.org/2000/svg"
    xmlns:xlink="http://www.w3.org/1999/xlink" x="0px" y="0px" viewBox="0 0 12 12" style="enable-background:new 0 0 12 12;" xml:space="preserve" height="12px" width="12px">
    <style type="text/css">
	.st0{opacity:0.9;fill:#FFFFFF;}
    </style>
    <path class="st0" d="M6.4,4.9c-0.5-1.5-2-2.5-3.8-2.1C1.4,3,0.3,4,0.1,5.3c-0.4,2.1,1.2,4,3.2,4c1.4,0,2.6-0.9,3.1-2.2h2.4v1.1
	c0,0.6,0.5,1.1,1.1,1.1c0.6,0,1.1-0.5,1.1-1.1V7.1C11.5,7.1,12,6.6,12,6s-0.5-1.1-1.1-1.1H6.4z M3.3,7.1C2.7,7.1,2.2,6.6,2.2,6
	s0.5-1.1,1.1-1.1S4.4,5.4,4.4,6S3.9,7.1,3.3,7.1z"/>
</svg>
