<?xml version="1.0" encoding="utf-8"?>
<!-- Generator: Adobe Illustrator 26.0.3, SVG Export Plug-In . SVG Version: 6.00 Build 0)  -->
<svg version="1.1" id="Layer_1" xmlns="http://www.w3.org/2000/svg" xmlns:xlink="http://www.w3.org/1999/xlink" x="0px" y="0px"
	 viewBox="0 0 12 12" style="enable-background:new 0 0 12 12;" xml:space="preserve" height="12px" width="12px">
<style type="text/css">
	.st0{fill:#FFFFFF;}
</style>
<g>
	<path class="st0" d="M8.2,12V8.4c0-0.1,0.1-0.2,0.2-0.2H12C12.1,8.2,8.2,12.1,8.2,12z"/>
	<g>
		<path class="st0" d="M12,1.4C12,0.6,11.4,0,10.6,0H1.4C0.6,0,0,0.6,0,1.4v9.2C0,11.4,0.6,12,1.4,12h6.1l0-4.3c0-0.1,0-0.1,0.1-0.2
			v0h0c0,0,0.1-0.1,0.2-0.1H12"/>
	</g>
</g>
</svg>
